<svg width="84" height="42" viewBox="0 0 84 42" fill="none" xmlns="http://www.w3.org/2000/svg">
<path opacity="0.3" d="M2.27696 30.1083C2.71668 28.5982 4.96419 24.3334 8.13904 22.2402L7.74006 30.3631C7.71063 30.6667 7.66767 30.9677 7.61199 31.2628C6.73058 35.9597 3.26805 38.8042 0.743164 40.3152C0.957771 37.8581 1.67437 33.8255 2.27696 30.1083Z" fill="white"/>
<g opacity="0.6">
<path d="M3.22488 24.5282C3.22469 24.5292 3.22469 24.5302 3.22469 24.5312L3.22549 24.5263C3.2685 24.2858 3.31151 24.0485 3.35611 23.8154C4.26487 19.0234 6.77292 15.9434 11.4736 14.5765L25.056 10.624C23.9792 13.4456 21.7061 17.1828 18.2211 18.8561C17.9623 18.9794 17.6972 19.093 17.4256 19.1928L10.9229 20.8835C9.92997 21.1659 8.9765 21.6518 8.08106 22.2855C5.5351 24.0877 3.46025 27.0904 2.29199 30.0594C2.56766 28.331 2.87833 26.4671 3.2239 24.5312L3.22488 24.5282Z" fill="white"/>
<path d="M3.22488 24.5282C3.225 24.5275 3.22518 24.5269 3.22549 24.5263L3.22488 24.5282Z" fill="white"/>
</g>
<path d="M3.22487 24.5312C3.22487 24.5296 3.22487 24.5279 3.22566 24.5263L3.22487 24.5312ZM3.35628 23.8154C4.26505 19.0234 6.7731 15.9435 11.4738 14.5765L26.19 10.2941C26.4608 10.1927 26.7252 10.0781 26.9833 9.95134C31.0659 7.95124 33.4269 3.04793 34.1947 0.170898L5.95752 8.57377C4.45142 9.17421 0.117876 10.4765 0 17.0192L0.743363 40.3153C0.985487 39.1283 1.81434 32.4285 3.22407 24.5312L3.22566 24.5263C3.26867 24.2858 3.31168 24.0486 3.35628 23.8154Z" fill="white"/>
<path d="M81.0264 36.1489C79.5397 40.3148 76.5662 41.8297 74.3362 41.8297C74.3362 41.48 74.3362 40.5093 74.3362 39.9361C74.3362 38.6402 75.6589 38.5225 76.436 38.0425C77.213 37.5625 77.3096 36.9063 77.3096 36.9063C77.3096 36.9063 75.4774 31.3337 74.3857 28.1958C74.3857 28.1958 73.5928 25.9234 75.0795 25.9234C75.4512 25.9234 76.5662 25.9234 76.5662 25.9234L79.168 33.4978L81.0264 25.9234H83.9999C83.9999 25.9234 82.5131 31.983 81.0264 36.1489ZM69.876 20.6213C69.876 20.6213 69.876 19.1064 71.3627 19.1064C71.7344 19.1064 72.8494 19.1064 72.8494 19.1064C72.8494 19.1064 72.8494 33.4978 72.8494 35.0127C72.8494 36.5276 71.3627 36.5276 71.3627 36.5276H69.876V20.6213ZM66.1592 23.6511H64.6724V22.1362C64.6724 22.1362 64.6724 20.6213 66.1592 20.6213C66.5308 20.6213 67.6459 20.6213 67.6459 20.6213C67.6459 20.6213 67.6459 21.3788 67.6459 22.1362C67.6459 23.6511 66.1592 23.6511 66.1592 23.6511ZM59.4689 29.7106C59.4689 28.9532 59.0972 28.1958 57.9822 28.1958C56.8671 28.1958 56.4954 28.9532 56.4954 29.7106C56.4954 29.7106 56.4954 33.4978 56.4954 35.0127C56.4954 36.5276 55.0087 36.5276 55.0087 36.5276H53.5865L53.522 29.7106C53.522 28.9532 53.1503 28.1958 52.0353 28.1958C50.9202 28.1958 50.5485 28.9532 50.5485 29.7106C50.5485 29.7106 50.5485 33.4978 50.5485 35.0127C50.5485 36.5276 49.0618 36.5276 49.0618 36.5276H47.5777V27.4383C47.5777 27.4383 47.5777 25.9234 49.0618 25.9234C49.4335 25.9234 50.5485 25.9234 50.5485 25.9234V26.698C50.9202 26.3021 51.4254 25.9234 52.0353 25.9234C54.3727 25.9234 55.0087 26.6809 55.0087 27.4383C55.0087 26.698 56.4954 25.9234 57.9822 25.9234C60.2123 25.9234 62.4424 26.3021 62.4424 29.7106C62.4424 29.7106 62.4424 33.4978 62.4424 35.0127C62.4424 36.5276 60.9556 36.5276 60.9556 36.5276H59.4689V29.7106ZM42.3716 35.3915C41.6282 36.1489 40.9367 36.5276 39.3981 36.5276C36.7963 36.5276 34.9379 34.2873 34.9379 31.2513C34.9379 28.2145 36.7963 25.9234 39.3981 25.9234C40.8848 25.9234 41.6282 26.3021 42.3716 27.0596V25.9234H45.345C45.345 25.9234 45.345 33.4978 45.345 35.0127C45.345 36.5276 43.8583 36.5276 43.8583 36.5276H42.3716V35.3915ZM40.1415 28.9532C39.0264 28.9532 37.9114 29.7106 37.9114 31.2255C37.9114 32.7404 39.0264 33.4978 40.1415 33.4978C41.2565 33.4978 42.3716 32.7404 42.3716 31.2255C42.3716 29.7106 41.2565 28.9532 40.1415 28.9532ZM28.991 26.698H33.4512C33.4512 26.698 33.4512 26.6809 33.4512 28.1958C33.4512 29.7106 31.9645 29.7106 31.9645 29.7106H28.991C28.991 29.7106 28.991 33.4978 28.991 35.0127C28.991 36.5276 27.5043 36.5276 27.5043 36.5276H26.0176L26.0176 22.1362C26.0176 22.1362 26.0176 20.6213 27.5043 20.6213C28.991 20.6213 34.9379 20.6213 34.9379 20.6213C34.9379 20.6213 34.9379 20.6213 34.9379 22.1362C34.9379 23.6511 33.4512 23.6511 33.4512 23.6511H28.991V26.698ZM66.1592 36.5276H64.6708L64.6724 25.9234H67.6459C67.6459 25.9234 67.6459 33.4978 67.6459 35.0127C67.6459 36.5276 66.1592 36.5276 66.1592 36.5276Z" fill="white"/>
</svg>
